# AST/ASF file generated using VICON BodyLanguage
# -----------------------------------------------
:version 1.10
:name VICON
:units
  mass 1.0
  length 0.45
  angle deg
:documentation
   .ast/.asf automatically generated from VICON data using
   VICON BodyBuilder and BodyLanguage model FoxedUp or BRILLIANT.MOD
:root
   order TX TY TZ RX RY RZ
   axis XYZ
   position 0 0 0  
   orientation 0 0 0 
:bonedata
  begin
     id 1 
     name lhipjoint
     direction 0.734343 -0.627749 0.258209 
     length 2.5437 
     axis 0 0 0  XYZ
  end
  begin
     id 2 
     name lfemur
     direction 0.34202 -0.939693 0  
     length 6.7391  
     axis 0 0 20  XYZ
    dof rx ry rz
    limits (-160.0 20.0)
           (-70.0 70.0)
           (-60.0 70.0)
  end
  begin
     id 3 
     name ltibia
     direction 0.34202 -0.939693 0   
     length 7.21536   
     axis 0 0 20   XYZ
    dof rx
    limits (-10.0 170.0)
  end
  begin
     id 4 
     name lfoot
     direction 0.0489572 -0.134509 0.989702   
     length 1.61313   
     axis -90 7.62852e-016 20   XYZ
    dof rx rz
    limits (-45.0 90.0)
           (-70.0 20.0)
  end
  begin
     id 5 
     name ltoes
     direction 1.53451e-011 -4.21692e-011 1   
     length 0.823104   
     axis -90 7.62852e-016 20   XYZ
    dof rx
    limits (-90.0 20.0)
  end
  begin
     id 6 
     name rhipjoint
     direction -0.746398 -0.615468 0.253157   
     length 2.59446  
     axis 0 0 0  XYZ 
  end
  begin
     id 7 
     name rfemur
     direction -0.34202 -0.939693 0   
     length 6.7075   
     axis 0 0 -20   XYZ
    dof rx ry rz
    limits (-160.0 20.0)
           (-70.0 70.0)
           (-70.0 60.0)
  end
  begin
     id 8 
     name rtibia
     direction -0.34202 -0.939693 0   
     length 7.27262   
     axis 0 0 -20   XYZ
    dof rx
    limits (-10.0 170.0)
 end
 begin
     id 9 
     name rfoot
     direction -0.0455203 -0.125066 0.991104   
     length 1.91095  
     axis -90 -7.62852e-016 -20   XYZ
    dof rx rz
    limits (-45.0 90.0)
           (-20.0 70.0)
  end
  begin
     id 10 
     name rtoes
     direction -1.53601e-011 -4.21913e-011 1   
     length 0.969037   
     axis -90 -7.62852e-016 -20   XYZ
    dof rx
    limits (-90.0 20.0)
  end
  begin
     id 11 
     name lowerback
     direction 0.0181546 0.999122 -0.0377542   
     length 1.99916   
     axis 0 0 0   XYZ
    dof rx ry rz
    limits (-20.0 45.0)
           (-30.0 30.0)
           (-30.0 30.0)
  end
  begin
     id 12 
     name upperback
     direction 0.0203486 0.99589 0.0882534   
     length 1.951   
     axis 0 0 0   XYZ
    dof rx ry rz
    limits (-20.0 45.0)
           (-30.0 30.0)
           (-30.0 30.0)
  end
  begin
     id 13 
     name thorax
     direction 0.0131685 0.994241 0.106355   
     length 1.97461   
     axis 0 0 0   XYZ
    dof rx ry rz
    limits (-20.0 45.0)
           (-30.0 30.0)
           (-30.0 30.0)
  end
  begin
     id 14 
     name lowerneck
     direction -0.0281395 0.999325 0.023617   
     length 1.7959   
     axis 0 0 0   XYZ
    dof rx ry rz
    limits (-20.0 45.0)
           (-30.0 30.0)
           (-30.0 30.0)
  end
  begin
     id 15 
     name upperneck
     direction 0.0288721 0.991984 -0.123019   
     length 1.79917   
     axis 0 0 0   XYZ
    dof rx ry rz
    limits (-20.0 45.0)
           (-30.0 30.0)
           (-30.0 30.0)
  end
  begin
     id 16
     name head
     direction 0.0133797 0.998944 -0.0439492  
     length 1.80902  
     axis 0 0 0   XYZ
    dof rx ry rz
    limits (-20.0 45.0)
           (-30.0 30.0)
           (-30.0 30.0)
  end
  begin
     id 17 
     name lclavicle
     direction 0.919195 0.377107 0.113449  
     length 3.17815  
     axis 0 0 0   XYZ
    dof ry rz
    limits (-20.0 10.0)
           (0.0 20.0)
  end
  begin
     id 18 
     name lhumerus
     direction 1 -4.48959e-011 2.13129e-027   
     length 4.84137   
     axis 180 -30 -90   XYZ
    dof rx ry rz
    limits (-60.0 90.0)
           (-90.0 90.0)
           (-90.0 90.0)
  end
  begin
     id 19
     name lradius
     direction 1 -4.48957e-011 -6.30627e-028   
     length 3.2452   
     axis 180 -30 -90   XYZ
    dof rx
    limits (-10.0 170.0)
  end
  begin
     id 20
     name lwrist
     direction 1 -4.4901e-011 9.13299e-027   
     length 1.6226   
     axis -6.84618e-015 90 90   XYZ
    dof ry
    limits (-180.0 0.0)
 end
  begin
     id 21 
     name lhand
     direction 1 -4.48816e-011 1.82293e-026   
     length 0.521221   
     axis -1.16502e-014 90 90   XYZ
    dof rx rz
    limits (-90.0 90.0)
           (-45.0 45.0)
  end
  begin
     id 22 
     name lfingers
     direction 1 -4.49108e-011 3.65687e-026   
     length 0.420221   
     axis -2.33008e-014 90 90   XYZ
    dof rx
    limits (0.0 90.0)
  end
  begin
     id 23
     name lthumb
     direction 0.707107 -6.34943e-011 0.707107   
     length 0.603356   
     axis -90 45 5.69224e-014   XYZ
    dof rx rz
    limits (-45.0 45.0)
           (-45.0 45.0)
  end
  begin
     id 24 
     name rclavicle
     direction -0.90847 0.38596 0.160368   
     length 3.12973  
     axis 0 0 0   XYZ 
    dof ry rz
    limits (-10.0 20.0)
           (-20.0 0.0)
  end
  begin
     id 25 
     name rhumerus
     direction -1 -4.48974e-011 4.47268e-028  
     length 4.72284   
     axis 180 30 90   XYZ
    dof rx ry rz
    limits (-90.0 60.0)
           (-90.0 90.0)
           (-90.0 90.0)
  end
  begin
     id 26 
     name rradius
     direction -1 -4.48969e-011 3.43203e-027   
     length 3.23459   
     axis 180 30 90   XYZ
    dof rx
    limits (-10.0 170.0)
  end
  begin
     id 27 
     name rwrist
     direction -1 -4.48969e-011 9.12911e-027   
     length 1.6173   
     axis -6.84618e-015 -90 -90   XYZ
    dof ry
    limits (-180.0 0.0)
  end
  begin
     id 28
     name rhand
     direction -1 -4.49194e-011 1.83006e-026   
     length 0.307416   
     axis -1.16502e-014 -90 -90   XYZ
    dof rx rz
    limits (-90.0 90.0)
           (-45.0 45.0)
  end
  begin
     id 29
     name rfingers
     direction -1 -4.48423e-011 3.63103e-026   
     length 0.247847   
     axis -2.33008e-014 -90 -90   XYZ
    dof rx
    limits (0.0 90.0)
  end
  begin
     id 30
     name rthumb
     direction -0.707107 -6.34802e-011 0.707107   
     length 0.35586   
     axis -90 -45 -5.69224e-014   XYZ
    dof rx rz
    limits (-45.0 45.0)
           (-45.0 45.0)
  end
:hierarchy
  begin
    root lhipjoint rhipjoint lowerback
    lhipjoint lfemur
    lfemur ltibia
    ltibia lfoot
    lfoot ltoes
    rhipjoint rfemur
    rfemur rtibia
    rtibia rfoot
    rfoot rtoes
    lowerback upperback
    upperback thorax
    thorax lowerneck lclavicle rclavicle
    lowerneck upperneck
    upperneck head
    lclavicle lhumerus
    lhumerus lradius
    lradius lwrist
    lwrist lhand lthumb
    lhand lfingers
    rclavicle rhumerus
    rhumerus rradius
    rradius rwrist
    rwrist rhand rthumb
    rhand rfingers
  end

#!OML:ASF H:\Terrain\Patient Classification 1\Animal1\Tuesday\Animal1.ASF
:FULLY-SPECIFIED
:DEGREES
878
root 11.9363 15.7898 -8.83096 3.88148 -16.7584 0.329671
lowerback 4.98922 -1.13807 -3.42801
upperback -1.49917 -1.78988 -0.975159
thorax -4.27752 -0.81142 1.06693
lowerneck -7.13689 0.634199 -7.55464
upperneck 14.3767 0.849245 6.51834
head 5.42585 0.451231 3.35403
rclavicle 1.89839e-014 9.93923e-015
rhumerus -23.5033 27.8242 -98.1322
rradius 113.974
rwrist -6.44264
rhand 43.5887 -7.5955
rfingers 7.12502
rthumb 65.2948 -14.2737
lclavicle 1.89839e-014 9.93923e-015
lhumerus -43.9308 -10.2052 95.4362
lradius 105.427
lwrist -57.488
lhand 56.4691 66.1315
lfingers 7.12502
lthumb 73.4769 45.4532
rfemur -30.6847 10.8778 14.0949
rtibia 45.8596
rfoot -10.8042 -19.4284
rtoes -12.0642
lfemur -11.266 -1.66161 -19.5908
ltibia 39.4758
lfoot -28.9659 21.0253
ltoes -4.13732
879
root 11.9376 15.8075 -8.80903 4.01369 -17.48 0.45287
lowerback 3.06283 -1.36071 -1.77653
upperback -0.5347 -1.93362 -2.07721
thorax -2.27923 -0.956743 -1.04056
lowerneck -7.6698 0.789343 -6.1088
upperneck 13.5736 0.857268 7.04802
head 5.26957 0.578165 3.27347
rclavicle -4.02539e-015 -1.59028e-014
rhumerus -21.6698 27.3931 -99.6358
rradius 113.658
rwrist -5.89841
rhand 45.2946 -7.61708
rfingers 7.12502
rthumb 66.6108 -11.8612
lclavicle -4.02539e-015 -1.59028e-014
lhumerus -42.1847 -11.1396 93.2497
lradius 105.185
lwrist -57.0487
lhand 56.7244 66.3016
lfingers 7.12502
lthumb 73.5804 44.834
rfemur -30.731 11.3118 13.87
rtibia 45.299
rfoot -10.6077 -19.0598
rtoes -12.2685
lfemur -11.0166 -1.5468 -19.8733
ltibia 39.0194
lfoot -28.5664 21.956
ltoes -5.53659
880
root 11.9331 15.8277 -8.79073 4.36726 -18.1334 -0.023801
lowerback 2.47131 -1.47888 -1.02879
upperback -0.4567 -2.04217 -1.89012
thorax -1.88645 -1.02022 -1.27856
lowerneck -7.96661 0.879494 -5.84017
upperneck 13.5296 0.939999 7.18626
head 5.30144 0.646092 3.28027
rclavicle -7.16122e-014 -2.22639e-014
rhumerus -21.2554 27.7297 -100.117
rradius 113.549
rwrist -5.61041
rhand 45.5965 -7.30238
rfingers 7.12502
rthumb 66.8386 -11.0862
lclavicle -7.16122e-014 -2.22639e-014
lhumerus -41.5666 -11.0836 92.987
lradius 104.846
lwrist -56.8407
lhand 56.5635 66.4938
lfingers 7.12502
lthumb 73.5155 45.525
rfemur -30.7766 11.8723 14.2927
rtibia 44.7213
rfoot -10.1426 -18.9008
rtoes -12.7999
lfemur -10.9261 -1.28399 -19.4351
ltibia 38.7479
lfoot -28.5756 22.2912
ltoes -5.12324
881
root 11.925 15.8438 -8.77544 4.7253 -18.7573 -0.697991
lowerback 2.28081 -1.53235 -0.314965
upperback -0.580789 -2.08301 -1.5273
thorax -1.91915 -1.04639 -1.30749
lowerneck -8.22979 0.905938 -5.86192
upperneck 13.8034 0.950626 7.37819
head 5.42869 0.667417 3.35338
rclavicle 3.06625e-014 -2.06736e-014
rhumerus -21.2774 28.0717 -100.515
rradius 113.622
rwrist -5.27217
rhand 44.1499 -7.44168
rfingers 7.12502
rthumb 65.7328 -13.3494
lclavicle 3.06625e-014 -2.06736e-014
lhumerus -41.3162 -11.0788 93.088
lradius 104.649
lwrist -56.7942
lhand 56.3583 67.0207
lfingers 7.12502
lthumb 73.4309 46.682
rfemur -30.762 12.5704 14.9178
rtibia 44.1295
rfoot -9.63767 -18.7618
rtoes -12.6119
lfemur -10.8057 -0.881159 -18.7588
ltibia 38.6173
lfoot -29.179 21.8234
ltoes -2.11118
882
root 11.9157 15.8553 -8.75983 5.00251 -19.2927 -0.969418
lowerback 2.29656 -1.53702 -0.121486
upperback -0.857256 -2.08069 -1.21171
thorax -2.20677 -1.04628 -1.08727
lowerneck -8.44207 0.942958 -5.96397
upperneck 14.2149 0.971604 7.60767
head 5.5885 0.691827 3.45513
rclavicle 4.22417e-015 -1.03368e-014
rhumerus -21.5371 28.2513 -100.758
rradius 113.726
rwrist -5.04923
rhand 43.7279 -7.77357
rfingers 7.12502
rthumb 65.4039 -14.2633
lclavicle 4.22417e-015 -1.03368e-014
lhumerus -41.3367 -11.0173 93.4156
lradius 104.588
lwrist -56.7696
lhand 56.3652 67.0431
lfingers 7.12502
lthumb 73.4338 46.6831
rfemur -30.7643 13.1446 15.1076
rtibia 43.5514
rfoot -9.30705 -18.6598
rtoes -12.8566
lfemur -10.7711 -0.604252 -18.515
ltibia 38.5373
lfoot -29.7508 21.3238
ltoes 1.30723
883
root 11.9082 15.864 -8.74108 5.2909 -19.7716 -0.966518
lowerback 2.35081 -1.51486 -0.280822
upperback -1.25398 -2.05394 -0.883779
thorax -2.62673 -1.02836 -0.65504
lowerneck -8.39441 0.970501 -6.0675
upperneck 14.4155 0.996616 7.7032
head 5.63903 0.704121 3.5079
rclavicle 6.77607e-014 1.59028e-015
rhumerus -22.0286 28.2396 -100.874
rradius 113.883
rwrist -5.15244
rhand 44.6338 -7.48199
rfingers 7.12502
rthumb 66.1065 -12.7019
lclavicle 6.77607e-014 1.59028e-015
lhumerus -41.4724 -10.7841 93.9798
lradius 104.549
lwrist -56.6681
lhand 56.1121 66.8772
lfingers 7.12502
lthumb 73.3268 47.2857
rfemur -30.8367 13.4555 15.0117
rtibia 43.0424
rfoot -8.98188 -18.4848
rtoes -14.1665
lfemur -10.8619 -0.420701 -18.5737
ltibia 38.4416
lfoot -29.8784 21.3117
ltoes 2.48684
